{
    "program_version": {
        "version": "4.2.1",
        "copyright": "Copyright (c) 2007-2019 the FFmpeg developers",
        "compiler_ident": "Apple LLVM version 10.0.1 (clang-1001.0.46.4)",
        "configuration": "--prefix=/usr/local/Cellar/ffmpeg/4.2.1-with-options_2 --enable-shared --cc=clang --host-cflags='-I/Library/Java/JavaVirtualMachines/openjdk-13.jdk/Contents/Home/include -I/Library/Java/JavaVirtualMachines/openjdk-13.jdk/Contents/Home/include/darwin' --host-ldflags= --enable-gpl --enable-libaom --enable-libmp3lame --enable-libopus --enable-libsnappy --enable-libtheora --enable-libvorbis --enable-libvpx --enable-libx264 --enable-libx265 --enable-libfontconfig --enable-libfreetype --enable-frei0r --enable-libass --disable-libjack --disable-indev=jack --enable-opencl --enable-videotoolbox --disable-htmlpages --enable-libbluray --enable-libfdk-aac --enable-libopenh264 --enable-librsvg --enable-librtmp --enable-librubberband --enable-libsoxr --enable-libspeex --enable-libsrt --enable-libssh --enable-libtesseract --enable-libtwolame --enable-libvidstab --enable-libvmaf --enable-libwavpack --enable-libwebp --enable-libxml2 --enable-libxvid --enable-libzimg --enable-libzmq --enable-openssl --enable-nonfree --enable-version3 --enable-libopencore-amrnb --enable-libopencore-amrwb --enable-libopenjpeg --disable-decoder=jpeg2000 --extra-cflags=-I/usr/local/Cellar/openjpeg/2.3.1/include/openjpeg-2.3"
    },
    "library_versions": [
        {
            "name": "libavutil",
            "major": 56,
            "minor": 31,
            "micro": 100,
            "version": 3678052,
            "ident": "Lavu56.31.100"
        },
        {
            "name": "libavcodec",
            "major": 58,
            "minor": 54,
            "micro": 100,
            "version": 3815012,
            "ident": "Lavc58.54.100"
        },
        {
            "name": "libavformat",
            "major": 58,
            "minor": 29,
            "micro": 100,
            "version": 3808612,
            "ident": "Lavf58.29.100"
        },
        {
            "name": "libavdevice",
            "major": 58,
            "minor": 8,
            "micro": 100,
            "version": 3803236,
            "ident": "Lavd58.8.100"
        },
        {
            "name": "libavfilter",
            "major": 7,
            "minor": 57,
            "micro": 100,
            "version": 473444,
            "ident": "Lavfi7.57.100"
        },
        {
            "name": "libswscale",
            "major": 5,
            "minor": 5,
            "micro": 100,
            "version": 329060,
            "ident": "SwS5.5.100"
        },
        {
            "name": "libswresample",
            "major": 3,
            "minor": 5,
            "micro": 100,
            "version": 197988,
            "ident": "SwR3.5.100"
        },
        {
            "name": "libpostproc",
            "major": 55,
            "minor": 5,
            "micro": 100,
            "version": 3605860,
            "ident": "postproc55.5.100"
        }
    ],
    "programs": [
        {
            "program_id": 1,
            "program_num": 1,
            "nb_streams": 2,
            "pmt_pid": 4096,
            "pcr_pid": 256,
            "start_pts": 28044,
            "start_time": "0.028044",
            "end_pts": 10044044,
            "end_time": "10.044044",
            "tags": {
                "service_name": "My Service Name",
                "service_provider": "FFmpeg"
            },
            "streams": [
                {
                    "index": 0,
                    "codec_name": "mpeg2video",
                    "codec_long_name": "MPEG-2 video",
                    "profile": "Main",
                    "codec_type": "video",
                    "codec_time_base": "1001/30000",
                    "codec_tag_string": "[2][0][0][0]",
                    "codec_tag": "0x0002",
                    "width": 704,
                    "height": 480,
                    "coded_width": 0,
                    "coded_height": 0,
                    "has_b_frames": 1,
                    "sample_aspect_ratio": "10:11",
                    "display_aspect_ratio": "4:3",
                    "pix_fmt": "yuv420p",
                    "level": 8,
                    "color_range": "tv",
                    "color_space": "bt709",
                    "color_transfer": "bt709",
                    "color_primaries": "bt709",
                    "chroma_location": "left",
                    "field_order": "tt",
                    "refs": 1,
                    "id": "0x100",
                    "r_frame_rate": "30000/1001",
                    "avg_frame_rate": "30000/1001",
                    "time_base": "1/90000",
                    "start_pts": 3003,
                    "start_time": "0.033367",
                    "duration_ts": 900900,
                    "duration": "10.010000",
                    "disposition": {
                        "default": 0,
                        "dub": 0,
                        "original": 0,
                        "comment": 0,
                        "lyrics": 0,
                        "karaoke": 0,
                        "forced": 0,
                        "hearing_impaired": 0,
                        "visual_impaired": 0,
                        "clean_effects": 0,
                        "attached_pic": 0,
                        "timed_thumbnails": 0
                    }
                },
                {
                    "index": 1,
                    "codec_name": "ac3",
                    "codec_long_name": "ATSC A/52A (AC-3)",
                    "codec_type": "audio",
                    "codec_time_base": "1/48000",
                    "codec_tag_string": "[129][0][0][0]",
                    "codec_tag": "0x0081",
                    "sample_fmt": "fltp",
                    "sample_rate": "48000",
                    "channels": 2,
                    "channel_layout": "stereo",
                    "bits_per_sample": 0,
                    "dmix_mode": "-1",
                    "ltrt_cmixlev": "-1.000000",
                    "ltrt_surmixlev": "-1.000000",
                    "loro_cmixlev": "-1.000000",
                    "loro_surmixlev": "-1.000000",
                    "id": "0x101",
                    "r_frame_rate": "0/0",
                    "avg_frame_rate": "0/0",
                    "time_base": "1/90000",
                    "start_pts": 2524,
                    "start_time": "0.028044",
                    "duration_ts": 901440,
                    "duration": "10.016000",
                    "bit_rate": "192000",
                    "disposition": {
                        "default": 0,
                        "dub": 0,
                        "original": 0,
                        "comment": 0,
                        "lyrics": 0,
                        "karaoke": 0,
                        "forced": 0,
                        "hearing_impaired": 0,
                        "visual_impaired": 0,
                        "clean_effects": 0,
                        "attached_pic": 0,
                        "timed_thumbnails": 0
                    },
                    "tags": {
                        "language": "eng"
                    }
                }
            ]
        }
    ],
    "streams": [
        {
            "index": 0,
            "codec_name": "mpeg2video",
            "codec_long_name": "MPEG-2 video",
            "profile": "Main",
            "codec_type": "video",
            "codec_time_base": "1001/30000",
            "codec_tag_string": "[2][0][0][0]",
            "codec_tag": "0x0002",
            "width": 704,
            "height": 480,
            "coded_width": 0,
            "coded_height": 0,
            "has_b_frames": 1,
            "sample_aspect_ratio": "10:11",
            "display_aspect_ratio": "4:3",
            "pix_fmt": "yuv420p",
            "level": 8,
            "color_range": "tv",
            "color_space": "bt709",
            "color_transfer": "bt709",
            "color_primaries": "bt709",
            "chroma_location": "left",
            "field_order": "tt",
            "refs": 1,
            "id": "0x100",
            "r_frame_rate": "30000/1001",
            "avg_frame_rate": "30000/1001",
            "time_base": "1/90000",
            "start_pts": 3003,
            "start_time": "0.033367",
            "duration_ts": 900900,
            "duration": "10.010000",
            "disposition": {
                "default": 0,
                "dub": 0,
                "original": 0,
                "comment": 0,
                "lyrics": 0,
                "karaoke": 0,
                "forced": 0,
                "hearing_impaired": 0,
                "visual_impaired": 0,
                "clean_effects": 0,
                "attached_pic": 0,
                "timed_thumbnails": 0
            }
        },
        {
            "index": 1,
            "codec_name": "ac3",
            "codec_long_name": "ATSC A/52A (AC-3)",
            "codec_type": "audio",
            "codec_time_base": "1/48000",
            "codec_tag_string": "[129][0][0][0]",
            "codec_tag": "0x0081",
            "sample_fmt": "fltp",
            "sample_rate": "48000",
            "channels": 2,
            "channel_layout": "stereo",
            "bits_per_sample": 0,
            "dmix_mode": "-1",
            "ltrt_cmixlev": "-1.000000",
            "ltrt_surmixlev": "-1.000000",
            "loro_cmixlev": "-1.000000",
            "loro_surmixlev": "-1.000000",
            "id": "0x101",
            "r_frame_rate": "0/0",
            "avg_frame_rate": "0/0",
            "time_base": "1/90000",
            "start_pts": 2524,
            "start_time": "0.028044",
            "duration_ts": 901440,
            "duration": "10.016000",
            "bit_rate": "192000",
            "disposition": {
                "default": 0,
                "dub": 0,
                "original": 0,
                "comment": 0,
                "lyrics": 0,
                "karaoke": 0,
                "forced": 0,
                "hearing_impaired": 0,
                "visual_impaired": 0,
                "clean_effects": 0,
                "attached_pic": 0,
                "timed_thumbnails": 0
            },
            "tags": {
                "language": "eng"
            }
        }
    ],
    "format": {
        "filename": "output/NTSC_480i_nonsquare_133_bt601_yuv420p_mandelbrot.ts",
        "nb_streams": 2,
        "nb_programs": 1,
        "format_name": "mpegts",
        "format_long_name": "MPEG-TS (MPEG-2 Transport Stream)",
        "start_time": "0.028044",
        "duration": "10.016000",
        "size": "8891836",
        "bit_rate": "7102105",
        "probe_score": 50
    }
}
